<svg xmlns="http://www.w3.org/2000/svg" viewBox="0 0 16 16" width="16" height="16">
  <path fill="#ffffff" d="
    M6.1 1.2c-1 .1-1.8.8-2 1.7-.9.1-1.6.8-1.7 1.7-.7.3-1.2 1-1.2 1.8
    0 .5.2 1 .5 1.3-.3.4-.5.9-.5 1.4 0 .8.5 1.5 1.1 1.8
    -.1.9.4 1.7 1.2 2.1.1.9.9 1.6 1.8 1.6.5 0 1-.2 1.3-.5
    V2.9c0-.9-.7-1.7-1.6-1.7h-.9z
    M9.9 1.2c1 .1 1.8.8 2 1.7.9.1 1.6.8 1.7 1.7.7.3 1.2 1 1.2 1.8
    0 .5-.2 1-.5 1.3.3.4.5.9.5 1.4 0 .8-.5 1.5-1.1 1.8
    .1.9-.4 1.7-1.2 2.1-.1.9-.9 1.6-1.8 1.6-.5 0-1-.2-1.3-.5
    V2.9c0-.9.7-1.7 1.6-1.7h.9z"/>
  <circle cx="4.6" cy="4.3" r="0.55" fill="#000000" opacity="0.55"/>
  <circle cx="3.6" cy="7.2" r="0.55" fill="#000000" opacity="0.55"/>
  <circle cx="5.2" cy="10.4" r="0.55" fill="#000000" opacity="0.55"/>
  <circle cx="11.4" cy="4.3" r="0.55" fill="#000000" opacity="0.55"/>
  <circle cx="12.4" cy="7.2" r="0.55" fill="#000000" opacity="0.55"/>
  <circle cx="10.8" cy="10.4" r="0.55" fill="#000000" opacity="0.55"/>
</svg>
